<svg width="24" height="24" viewBox="0 0 24 24" fill="none" xmlns="http://www.w3.org/2000/svg">
    <path fill-rule="evenodd" clip-rule="evenodd"
        d="M12 2.375C16.5833 2.375 20.25 3.29167 23 5.125V10.625C22.5596 10.9186 22.0957 11.1887 21.6082 11.4353C21.6195 11.6212 21.625 11.81 21.625 12C21.625 17.3158 17.3158 21.625 12 21.625C6.68426 21.625 2.375 17.3158 2.375 12C2.375 11.81 2.38051 11.6212 2.39138 11.4339C1.9043 11.1887 1.4404 10.9186 1 10.625V5.125C3.75 3.29167 7.41667 2.375 12 2.375ZM12 7.875C8.96243 7.875 6.5 10.3374 6.5 13.375C6.5 16.4125 8.96243 18.875 12 18.875C15.0375 18.875 17.5 16.4125 17.5 13.375C17.5 10.3374 15.0375 7.875 12 7.875ZM12 3.84822C8.21238 3.84822 5.14021 4.43225 2.78347 5.60031L2.375 5.8125V7.875C4.78125 6.56548 7.98958 5.91072 12 5.91072C15.7876 5.91072 18.8597 6.49475 21.2165 7.66281L21.625 7.875V5.8125C19.2188 4.50298 16.0105 3.84822 12 3.84822ZM12 9.25C14.2782 9.25 16.125 11.0968 16.125 13.375C16.125 15.6532 14.2782 17.5 12 17.5C9.72183 17.5 7.875 15.6532 7.875 13.375C7.875 11.0968 9.72183 9.25 12 9.25ZM12 10.625C10.4812 10.625 9.25 11.8562 9.25 13.375C9.25 13.7781 9.33675 14.161 9.49215 14.506C10.0259 12.7704 11.3954 11.4009 13.131 10.8676C12.786 10.7117 12.4031 10.625 12 10.625Z"
        fill="white" />
</svg>