<svg width="24" height="24" viewBox="0 0 24 24" fill="none" xmlns="http://www.w3.org/2000/svg">
    <g clip-path="url(#clip0_1_4138)">
        <path fill-rule="evenodd" clip-rule="evenodd"
            d="M12 0C18.7393 0 22.3415 2.92403 22.4949 8.61641L22.5 9C23.3284 9 24 9.67157 24 10.5V15C24 15.8284 23.3284 16.5 22.5 16.5C22.5 18.1091 22.2274 19.4724 21.6708 20.5854C21.1733 21.5804 19.4718 22.1281 16.4172 22.3617C16.1498 23.3067 15.2809 24 14.25 24H9.75C8.50736 24 7.5 22.9926 7.5 21.75C7.5 20.5074 8.50736 19.5 9.75 19.5H14.25C15.1745 19.5 15.9688 20.0576 16.3149 20.8549C18.7478 20.6684 20.1279 20.3171 20.3292 19.9146C20.7234 19.1262 20.9468 18.1404 20.9916 16.9542L21 16.5H19.5V9H21C21 3.94457 18.111 1.5 12 1.5C6.03115 1.5 3.13612 3.83219 3.00469 8.65153L3 9H4.5V16.5H1.5C0.671573 16.5 0 15.8284 0 15V10.5C0 9.67157 0.671573 9 1.5 9C1.5 3.05543 5.11096 0 12 0Z"
            fill="white" />
    </g>
    <defs>
        <clipPath id="clip0_1_4138">
            <rect width="24" height="24" fill="white" />
        </clipPath>
    </defs>
</svg>